<mxfile host="app.diagrams.net" modified="2023-10-06T16:08:07.297Z" agent="Mozilla/5.0 (Windows NT 10.0; Win64; x64) AppleWebKit/537.36 (KHTML, like Gecko) Chrome/117.0.0.0 Safari/537.36" version="21.7.2" etag="r1VyA0KVffA1mPvZVcK4" type="device">
  <diagram id="tQ0tegyyUaphIH791T1e" name="Page-1">
    <mxGraphModel dx="1793" dy="948" grid="1" gridSize="10" guides="1" tooltips="1" connect="1" arrows="1" fold="1" page="1" pageScale="1" pageWidth="1100" pageHeight="850" math="0" shadow="0">
      <root>
        <mxCell id="0" />
        <mxCell id="1" parent="0" />
        <mxCell id="EctsauKl_gHP3Q37_j7N-1" value="Cipher" style="swimlane;fontStyle=1;align=center;verticalAlign=top;childLayout=stackLayout;horizontal=1;startSize=26;horizontalStack=0;resizeParent=1;resizeParentMax=0;resizeLast=0;collapsible=1;marginBottom=0;whiteSpace=wrap;html=1;" parent="1" vertex="1">
          <mxGeometry x="650" y="300" width="175" height="180" as="geometry" />
        </mxCell>
        <mxCell id="EctsauKl_gHP3Q37_j7N-2" value="- name: String&lt;br&gt;- plainText: String&lt;br&gt;- encryptedText: String" style="text;strokeColor=none;fillColor=none;align=left;verticalAlign=top;spacingLeft=4;spacingRight=4;overflow=hidden;rotatable=0;points=[[0,0.5],[1,0.5]];portConstraint=eastwest;whiteSpace=wrap;html=1;" parent="EctsauKl_gHP3Q37_j7N-1" vertex="1">
          <mxGeometry y="26" width="175" height="54" as="geometry" />
        </mxCell>
        <mxCell id="EctsauKl_gHP3Q37_j7N-3" value="" style="line;strokeWidth=1;fillColor=none;align=left;verticalAlign=middle;spacingTop=-1;spacingLeft=3;spacingRight=3;rotatable=0;labelPosition=right;points=[];portConstraint=eastwest;strokeColor=inherit;" parent="EctsauKl_gHP3Q37_j7N-1" vertex="1">
          <mxGeometry y="80" width="175" height="28" as="geometry" />
        </mxCell>
        <mxCell id="EctsauKl_gHP3Q37_j7N-4" value="+ Cipher(name: String, plainText: String)&lt;br&gt;+ encrypt()&lt;br&gt;+ setters/getters" style="text;strokeColor=none;fillColor=none;align=left;verticalAlign=top;spacingLeft=4;spacingRight=4;overflow=hidden;rotatable=0;points=[[0,0.5],[1,0.5]];portConstraint=eastwest;whiteSpace=wrap;html=1;" parent="EctsauKl_gHP3Q37_j7N-1" vertex="1">
          <mxGeometry y="108" width="175" height="72" as="geometry" />
        </mxCell>
        <mxCell id="EctsauKl_gHP3Q37_j7N-11" style="edgeStyle=orthogonalEdgeStyle;rounded=0;orthogonalLoop=1;jettySize=auto;html=1;entryX=0.496;entryY=1.007;entryDx=0;entryDy=0;entryPerimeter=0;strokeWidth=1;endArrow=block;endFill=0;" parent="1" source="EctsauKl_gHP3Q37_j7N-5" target="EctsauKl_gHP3Q37_j7N-4" edge="1">
          <mxGeometry relative="1" as="geometry" />
        </mxCell>
        <mxCell id="EctsauKl_gHP3Q37_j7N-5" value="Vigenere&amp;nbsp;" style="swimlane;fontStyle=1;align=center;verticalAlign=top;childLayout=stackLayout;horizontal=1;startSize=26;horizontalStack=0;resizeParent=1;resizeParentMax=0;resizeLast=0;collapsible=1;marginBottom=0;whiteSpace=wrap;html=1;" parent="1" vertex="1">
          <mxGeometry x="475" y="610" width="160" height="158" as="geometry" />
        </mxCell>
        <mxCell id="EctsauKl_gHP3Q37_j7N-6" value="- key: String&lt;br&gt;- numOfElements: int" style="text;strokeColor=none;fillColor=none;align=left;verticalAlign=top;spacingLeft=4;spacingRight=4;overflow=hidden;rotatable=0;points=[[0,0.5],[1,0.5]];portConstraint=eastwest;whiteSpace=wrap;html=1;" parent="EctsauKl_gHP3Q37_j7N-5" vertex="1">
          <mxGeometry y="26" width="160" height="44" as="geometry" />
        </mxCell>
        <mxCell id="EctsauKl_gHP3Q37_j7N-7" value="" style="line;strokeWidth=1;fillColor=none;align=left;verticalAlign=middle;spacingTop=-1;spacingLeft=3;spacingRight=3;rotatable=0;labelPosition=right;points=[];portConstraint=eastwest;strokeColor=inherit;" parent="EctsauKl_gHP3Q37_j7N-5" vertex="1">
          <mxGeometry y="70" width="160" height="8" as="geometry" />
        </mxCell>
        <mxCell id="EctsauKl_gHP3Q37_j7N-8" value="+ Vigenere(key: String, name:String, plainText: String)&lt;br&gt;- find(letter: char): int&lt;br&gt;+ decrypt()" style="text;strokeColor=none;fillColor=none;align=left;verticalAlign=top;spacingLeft=4;spacingRight=4;overflow=hidden;rotatable=0;points=[[0,0.5],[1,0.5]];portConstraint=eastwest;whiteSpace=wrap;html=1;" parent="EctsauKl_gHP3Q37_j7N-5" vertex="1">
          <mxGeometry y="78" width="160" height="80" as="geometry" />
        </mxCell>
        <mxCell id="EctsauKl_gHP3Q37_j7N-30" style="edgeStyle=orthogonalEdgeStyle;rounded=0;orthogonalLoop=1;jettySize=auto;html=1;endArrow=none;endFill=0;" parent="1" source="EctsauKl_gHP3Q37_j7N-12" edge="1">
          <mxGeometry relative="1" as="geometry">
            <mxPoint x="381" y="580" as="targetPoint" />
            <Array as="points">
              <mxPoint x="380" y="590" />
              <mxPoint x="381" y="590" />
            </Array>
          </mxGeometry>
        </mxCell>
        <mxCell id="EctsauKl_gHP3Q37_j7N-12" value="Playfair" style="swimlane;fontStyle=1;align=center;verticalAlign=top;childLayout=stackLayout;horizontal=1;startSize=26;horizontalStack=0;resizeParent=1;resizeParentMax=0;resizeLast=0;collapsible=1;marginBottom=0;whiteSpace=wrap;html=1;" parent="1" vertex="1">
          <mxGeometry x="301" y="610" width="170" height="158" as="geometry" />
        </mxCell>
        <mxCell id="EctsauKl_gHP3Q37_j7N-13" value="- key: String[][]&lt;br&gt;- numOfElements: int&lt;br&gt;- overflowed: boolean" style="text;strokeColor=none;fillColor=none;align=left;verticalAlign=top;spacingLeft=4;spacingRight=4;overflow=hidden;rotatable=0;points=[[0,0.5],[1,0.5]];portConstraint=eastwest;whiteSpace=wrap;html=1;" parent="EctsauKl_gHP3Q37_j7N-12" vertex="1">
          <mxGeometry y="26" width="170" height="44" as="geometry" />
        </mxCell>
        <mxCell id="EctsauKl_gHP3Q37_j7N-14" value="" style="line;strokeWidth=1;fillColor=none;align=left;verticalAlign=middle;spacingTop=-1;spacingLeft=3;spacingRight=3;rotatable=0;labelPosition=right;points=[];portConstraint=eastwest;strokeColor=inherit;" parent="EctsauKl_gHP3Q37_j7N-12" vertex="1">
          <mxGeometry y="70" width="170" height="8" as="geometry" />
        </mxCell>
        <mxCell id="EctsauKl_gHP3Q37_j7N-15" value="+ Playfair(name:String)&lt;br&gt;-displayKey()&lt;br&gt;+ add(letter: String): boolean&lt;br&gt;- exist(letter: char): boolean&lt;br&gt;+ decrypt()" style="text;strokeColor=none;fillColor=none;align=left;verticalAlign=top;spacingLeft=4;spacingRight=4;overflow=hidden;rotatable=0;points=[[0,0.5],[1,0.5]];portConstraint=eastwest;whiteSpace=wrap;html=1;" parent="EctsauKl_gHP3Q37_j7N-12" vertex="1">
          <mxGeometry y="78" width="170" height="80" as="geometry" />
        </mxCell>
        <mxCell id="EctsauKl_gHP3Q37_j7N-29" style="edgeStyle=orthogonalEdgeStyle;rounded=0;orthogonalLoop=1;jettySize=auto;html=1;endArrow=none;endFill=0;" parent="1" edge="1">
          <mxGeometry relative="1" as="geometry">
            <mxPoint x="555" y="580" as="targetPoint" />
            <mxPoint x="215" y="631" as="sourcePoint" />
            <Array as="points">
              <mxPoint x="215" y="580" />
            </Array>
          </mxGeometry>
        </mxCell>
        <mxCell id="EctsauKl_gHP3Q37_j7N-16" value="MonoSub" style="swimlane;fontStyle=1;align=center;verticalAlign=top;childLayout=stackLayout;horizontal=1;startSize=26;horizontalStack=0;resizeParent=1;resizeParentMax=0;resizeLast=0;collapsible=1;marginBottom=0;whiteSpace=wrap;html=1;" parent="1" vertex="1">
          <mxGeometry x="130" y="611" width="160" height="180" as="geometry" />
        </mxCell>
        <mxCell id="EctsauKl_gHP3Q37_j7N-17" value="- key: int" style="text;strokeColor=none;fillColor=none;align=left;verticalAlign=top;spacingLeft=4;spacingRight=4;overflow=hidden;rotatable=0;points=[[0,0.5],[1,0.5]];portConstraint=eastwest;whiteSpace=wrap;html=1;" parent="EctsauKl_gHP3Q37_j7N-16" vertex="1">
          <mxGeometry y="26" width="160" height="26" as="geometry" />
        </mxCell>
        <mxCell id="EctsauKl_gHP3Q37_j7N-18" value="" style="line;strokeWidth=1;fillColor=none;align=left;verticalAlign=middle;spacingTop=-1;spacingLeft=3;spacingRight=3;rotatable=0;labelPosition=right;points=[];portConstraint=eastwest;strokeColor=inherit;" parent="EctsauKl_gHP3Q37_j7N-16" vertex="1">
          <mxGeometry y="52" width="160" height="8" as="geometry" />
        </mxCell>
        <mxCell id="EctsauKl_gHP3Q37_j7N-19" value="+ MonoSub(key: int, name:String, plainText: String)&lt;br&gt;- moveCharacter&lt;span style=&quot;background-color: initial;&quot;&gt;(character: char, key: int, check: boolean): char&lt;/span&gt;&lt;br&gt;+ decrypt()" style="text;strokeColor=none;fillColor=none;align=left;verticalAlign=top;spacingLeft=4;spacingRight=4;overflow=hidden;rotatable=0;points=[[0,0.5],[1,0.5]];portConstraint=eastwest;whiteSpace=wrap;html=1;" parent="EctsauKl_gHP3Q37_j7N-16" vertex="1">
          <mxGeometry y="60" width="160" height="120" as="geometry" />
        </mxCell>
        <mxCell id="EctsauKl_gHP3Q37_j7N-31" style="edgeStyle=orthogonalEdgeStyle;rounded=0;orthogonalLoop=1;jettySize=auto;html=1;endArrow=none;endFill=0;" parent="1" edge="1">
          <mxGeometry relative="1" as="geometry">
            <mxPoint x="550" y="580" as="targetPoint" />
            <mxPoint x="710" y="630" as="sourcePoint" />
            <Array as="points">
              <mxPoint x="710" y="580" />
            </Array>
          </mxGeometry>
        </mxCell>
        <mxCell id="EctsauKl_gHP3Q37_j7N-20" value="Keyed" style="swimlane;fontStyle=1;align=center;verticalAlign=top;childLayout=stackLayout;horizontal=1;startSize=26;horizontalStack=0;resizeParent=1;resizeParentMax=0;resizeLast=0;collapsible=1;marginBottom=0;whiteSpace=wrap;html=1;" parent="1" vertex="1">
          <mxGeometry x="640" y="610" width="160" height="170" as="geometry" />
        </mxCell>
        <mxCell id="EctsauKl_gHP3Q37_j7N-21" value="- key: int[]&lt;br&gt;- numOfElements: int&lt;br&gt;- digitsInKey: int&lt;br&gt;&lt;span style=&quot;color: rgb(220, 220, 170); background-color: rgb(30, 30, 30); font-family: Consolas, &amp;quot;Courier New&amp;quot;, monospace; font-size: 14px; white-space: pre;&quot;&gt;&lt;/span&gt;" style="text;strokeColor=none;fillColor=none;align=left;verticalAlign=top;spacingLeft=4;spacingRight=4;overflow=hidden;rotatable=0;points=[[0,0.5],[1,0.5]];portConstraint=eastwest;whiteSpace=wrap;html=1;" parent="EctsauKl_gHP3Q37_j7N-20" vertex="1">
          <mxGeometry y="26" width="160" height="54" as="geometry" />
        </mxCell>
        <mxCell id="EctsauKl_gHP3Q37_j7N-22" value="" style="line;strokeWidth=1;fillColor=none;align=left;verticalAlign=middle;spacingTop=-1;spacingLeft=3;spacingRight=3;rotatable=0;labelPosition=right;points=[];portConstraint=eastwest;strokeColor=inherit;" parent="EctsauKl_gHP3Q37_j7N-20" vertex="1">
          <mxGeometry y="80" width="160" height="8" as="geometry" />
        </mxCell>
        <mxCell id="EctsauKl_gHP3Q37_j7N-23" value="+ Keyed(name:String)&lt;br&gt;+ add(digit: int, in: Scanner)&lt;br&gt;+exist(digit: int): boolean&lt;br&gt;+display(arr: String[])&lt;br&gt;- split(text: String): String[]" style="text;strokeColor=none;fillColor=none;align=left;verticalAlign=top;spacingLeft=4;spacingRight=4;overflow=hidden;rotatable=0;points=[[0,0.5],[1,0.5]];portConstraint=eastwest;whiteSpace=wrap;html=1;" parent="EctsauKl_gHP3Q37_j7N-20" vertex="1">
          <mxGeometry y="88" width="160" height="82" as="geometry" />
        </mxCell>
        <mxCell id="EctsauKl_gHP3Q37_j7N-33" style="edgeStyle=orthogonalEdgeStyle;rounded=0;orthogonalLoop=1;jettySize=auto;html=1;endArrow=none;endFill=0;" parent="1" edge="1">
          <mxGeometry relative="1" as="geometry">
            <mxPoint x="710" y="580" as="targetPoint" />
            <Array as="points">
              <mxPoint x="890" y="580" />
            </Array>
            <mxPoint x="890" y="610" as="sourcePoint" />
          </mxGeometry>
        </mxCell>
        <mxCell id="PE9uMGZANJ4f3MsVHTWL-1" value="" style="endArrow=diamondThin;endFill=0;endSize=24;html=1;rounded=0;" parent="1" edge="1">
          <mxGeometry width="160" relative="1" as="geometry">
            <mxPoint x="650" y="374.58" as="sourcePoint" />
            <mxPoint x="495" y="375" as="targetPoint" />
          </mxGeometry>
        </mxCell>
        <mxCell id="PE9uMGZANJ4f3MsVHTWL-2" value="CipherList" style="swimlane;fontStyle=1;align=center;verticalAlign=top;childLayout=stackLayout;horizontal=1;startSize=26;horizontalStack=0;resizeParent=1;resizeParentMax=0;resizeLast=0;collapsible=1;marginBottom=0;whiteSpace=wrap;html=1;" parent="1" vertex="1">
          <mxGeometry x="320" y="300" width="175" height="168" as="geometry" />
        </mxCell>
        <mxCell id="PE9uMGZANJ4f3MsVHTWL-3" value="-numOfCiphers: int" style="text;strokeColor=none;fillColor=none;align=left;verticalAlign=top;spacingLeft=4;spacingRight=4;overflow=hidden;rotatable=0;points=[[0,0.5],[1,0.5]];portConstraint=eastwest;whiteSpace=wrap;html=1;" parent="PE9uMGZANJ4f3MsVHTWL-2" vertex="1">
          <mxGeometry y="26" width="175" height="24" as="geometry" />
        </mxCell>
        <mxCell id="PE9uMGZANJ4f3MsVHTWL-4" value="" style="line;strokeWidth=1;fillColor=none;align=left;verticalAlign=middle;spacingTop=-1;spacingLeft=3;spacingRight=3;rotatable=0;labelPosition=right;points=[];portConstraint=eastwest;strokeColor=inherit;" parent="PE9uMGZANJ4f3MsVHTWL-2" vertex="1">
          <mxGeometry y="50" width="175" height="28" as="geometry" />
        </mxCell>
        <mxCell id="PE9uMGZANJ4f3MsVHTWL-5" value="+findCipher(cipher: Cipher): int&lt;br&gt;+add(cipher: Cipher)&lt;br&gt;+remove(index: int)&lt;br&gt;+display()&lt;br&gt;+getCipher(index: int): Cipher" style="text;strokeColor=none;fillColor=none;align=left;verticalAlign=top;spacingLeft=4;spacingRight=4;overflow=hidden;rotatable=0;points=[[0,0.5],[1,0.5]];portConstraint=eastwest;whiteSpace=wrap;html=1;" parent="PE9uMGZANJ4f3MsVHTWL-2" vertex="1">
          <mxGeometry y="78" width="175" height="90" as="geometry" />
        </mxCell>
        <mxCell id="5FvGQcvZJUQbWrv0fUT5-1" value="5" style="text;html=1;align=center;verticalAlign=middle;resizable=0;points=[];autosize=1;strokeColor=none;fillColor=none;" parent="1" vertex="1">
          <mxGeometry x="610" y="350" width="30" height="30" as="geometry" />
        </mxCell>
        <mxCell id="5FvGQcvZJUQbWrv0fUT5-2" value="1" style="text;html=1;align=center;verticalAlign=middle;resizable=0;points=[];autosize=1;strokeColor=none;fillColor=none;" parent="1" vertex="1">
          <mxGeometry x="495" y="380" width="30" height="30" as="geometry" />
        </mxCell>
        <mxCell id="5FvGQcvZJUQbWrv0fUT5-3" value="-arrCipher" style="text;html=1;align=center;verticalAlign=middle;resizable=0;points=[];autosize=1;strokeColor=none;fillColor=none;" parent="1" vertex="1">
          <mxGeometry x="530" y="348" width="80" height="30" as="geometry" />
        </mxCell>
        <mxCell id="KPO6eKNTyxVdoFdrmlSy-2" value="DES" style="swimlane;fontStyle=1;align=center;verticalAlign=top;childLayout=stackLayout;horizontal=1;startSize=26;horizontalStack=0;resizeParent=1;resizeParentMax=0;resizeLast=0;collapsible=1;marginBottom=0;whiteSpace=wrap;html=1;" vertex="1" parent="1">
          <mxGeometry x="810" y="611" width="160" height="540" as="geometry" />
        </mxCell>
        <mxCell id="KPO6eKNTyxVdoFdrmlSy-3" value="-key: String&lt;br&gt;- IP: byte[]&lt;br&gt;- FP: byte[]&lt;br&gt;- E: byte[]&lt;br&gt;- S: byte[]&lt;br&gt;- P: byte[]&lt;br&gt;- PC1: byte[]&lt;br&gt;- PC2: byte[]&lt;br&gt;- rotations: byte[]" style="text;strokeColor=none;fillColor=none;align=left;verticalAlign=top;spacingLeft=4;spacingRight=4;overflow=hidden;rotatable=0;points=[[0,0.5],[1,0.5]];portConstraint=eastwest;whiteSpace=wrap;html=1;" vertex="1" parent="KPO6eKNTyxVdoFdrmlSy-2">
          <mxGeometry y="26" width="160" height="144" as="geometry" />
        </mxCell>
        <mxCell id="KPO6eKNTyxVdoFdrmlSy-4" value="" style="line;strokeWidth=1;fillColor=none;align=left;verticalAlign=middle;spacingTop=-1;spacingLeft=3;spacingRight=3;rotatable=0;labelPosition=right;points=[];portConstraint=eastwest;strokeColor=inherit;" vertex="1" parent="KPO6eKNTyxVdoFdrmlSy-2">
          <mxGeometry y="170" width="160" height="8" as="geometry" />
        </mxCell>
        <mxCell id="KPO6eKNTyxVdoFdrmlSy-5" value="+DES(name: String,key: String)&lt;br&gt;-permute(table: byte[]&lt;br&gt;,srcWidth: int, src: long): long&lt;br&gt;-s(boxNumber: int, src: byte): byte&lt;br&gt;-getLongFromBytes(ba: byte[], offset: int): long&lt;br&gt;-getBytesFromLong(ba: byte[], offset: int, long l)&lt;br&gt;-feistel(r: int, subkey: long): int&lt;br&gt;-createSubkeys(key: long): long[]&lt;br&gt;+encryptBlock(m: long, key: long): long&lt;br&gt;-charToNibble(c: char): int&lt;br&gt;-parseBytes(s: String): byte[]&lt;br&gt;-hex(bytes: byte[]): String&lt;br&gt;+encryptCBC(message: byte[], key:byte[]): byte[]&lt;br&gt;" style="text;strokeColor=none;fillColor=none;align=left;verticalAlign=top;spacingLeft=4;spacingRight=4;overflow=hidden;rotatable=0;points=[[0,0.5],[1,0.5]];portConstraint=eastwest;whiteSpace=wrap;html=1;" vertex="1" parent="KPO6eKNTyxVdoFdrmlSy-2">
          <mxGeometry y="178" width="160" height="362" as="geometry" />
        </mxCell>
        <mxCell id="KPO6eKNTyxVdoFdrmlSy-6" value="FreqAnalysis" style="swimlane;fontStyle=1;align=center;verticalAlign=top;childLayout=stackLayout;horizontal=1;startSize=26;horizontalStack=0;resizeParent=1;resizeParentMax=0;resizeLast=0;collapsible=1;marginBottom=0;whiteSpace=wrap;html=1;" vertex="1" parent="1">
          <mxGeometry x="120" y="300" width="160" height="210" as="geometry" />
        </mxCell>
        <mxCell id="KPO6eKNTyxVdoFdrmlSy-7" value="- plainText: String&lt;br style=&quot;border-color: var(--border-color);&quot;&gt;- encryptedText: String&lt;br&gt;-freqMatrixOfText: String[][]" style="text;strokeColor=none;fillColor=none;align=left;verticalAlign=top;spacingLeft=4;spacingRight=4;overflow=hidden;rotatable=0;points=[[0,0.5],[1,0.5]];portConstraint=eastwest;whiteSpace=wrap;html=1;" vertex="1" parent="KPO6eKNTyxVdoFdrmlSy-6">
          <mxGeometry y="26" width="160" height="54" as="geometry" />
        </mxCell>
        <mxCell id="KPO6eKNTyxVdoFdrmlSy-8" value="" style="line;strokeWidth=1;fillColor=none;align=left;verticalAlign=middle;spacingTop=-1;spacingLeft=3;spacingRight=3;rotatable=0;labelPosition=right;points=[];portConstraint=eastwest;strokeColor=inherit;" vertex="1" parent="KPO6eKNTyxVdoFdrmlSy-6">
          <mxGeometry y="80" width="160" height="8" as="geometry" />
        </mxCell>
        <mxCell id="KPO6eKNTyxVdoFdrmlSy-9" value="+ MonoSub(key: int, name:String, plainText: String)&lt;br&gt;- createFreqMatrixOfText()&amp;nbsp; &lt;br&gt;- sortFreqMatrixOfText(&lt;br&gt;lengthOfFreqMatrix: int)&lt;br&gt;+ decrypt()&lt;br&gt;+ setters/getters" style="text;strokeColor=none;fillColor=none;align=left;verticalAlign=top;spacingLeft=4;spacingRight=4;overflow=hidden;rotatable=0;points=[[0,0.5],[1,0.5]];portConstraint=eastwest;whiteSpace=wrap;html=1;" vertex="1" parent="KPO6eKNTyxVdoFdrmlSy-6">
          <mxGeometry y="88" width="160" height="122" as="geometry" />
        </mxCell>
      </root>
    </mxGraphModel>
  </diagram>
</mxfile>
